<svg id="wave" style="transform:rotate(180deg); transition: 0.3s" viewBox="0 0 1440 150" version="1.1" xmlns="http://www.w3.org/2000/svg">
    <defs>
        <linearGradient id="sw-gradient-0" x1="0" x2="0" y1="1" y2="0">
            <stop stop-color="rgb(62 171 246)" offset="0%"></stop>
            <stop stop-color="rgb(135 228 237)" offset="50%"></stop>
            <stop stop-color="rgb(141 236 88)" offset="100%"></stop>
        </linearGradient>
    </defs>
    <path style="opacity:1" fill="url(#sw-gradient-0)" d="M0,90L26.7,85C53.3,80,107,70,160,57.5C213.3,45,267,30,320,42.5C373.3,55,427,95,480,110C533.3,125,587,115,640,112.5C693.3,110,747,115,800,120C853.3,125,907,130,960,122.5C1013.3,115,1067,95,1120,90C1173.3,85,1227,95,1280,92.5C1333.3,90,1387,75,1440,80C1493.3,85,1547,110,1600,107.5C1653.3,105,1707,75,1760,57.5C1813.3,40,1867,35,1920,50C1973.3,65,2027,100,2080,102.5C2133.3,105,2187,75,2240,57.5C2293.3,40,2347,35,2400,45C2453.3,55,2507,80,2560,97.5C2613.3,115,2667,125,2720,117.5C2773.3,110,2827,85,2880,85C2933.3,85,2987,110,3040,122.5C3093.3,135,3147,135,3200,112.5C3253.3,90,3307,45,3360,25C3413.3,5,3467,10,3520,27.5C3573.3,45,3627,75,3680,95C3733.3,115,3787,125,3813,130L3840,135L3840,150L3813.3,150C3786.7,150,3733,150,3680,150C3626.7,150,3573,150,3520,150C3466.7,150,3413,150,3360,150C3306.7,150,3253,150,3200,150C3146.7,150,3093,150,3040,150C2986.7,150,2933,150,2880,150C2826.7,150,2773,150,2720,150C2666.7,150,2613,150,2560,150C2506.7,150,2453,150,2400,150C2346.7,150,2293,150,2240,150C2186.7,150,2133,150,2080,150C2026.7,150,1973,150,1920,150C1866.7,150,1813,150,1760,150C1706.7,150,1653,150,1600,150C1546.7,150,1493,150,1440,150C1386.7,150,1333,150,1280,150C1226.7,150,1173,150,1120,150C1066.7,150,1013,150,960,150C906.7,150,853,150,800,150C746.7,150,693,150,640,150C586.7,150,533,150,480,150C426.7,150,373,150,320,150C266.7,150,213,150,160,150C106.7,150,53,150,27,150L0,150Z"></path>
    <defs>
        <linearGradient id="sw-gradient-1" x1="0" x2="0" y1="1" y2="0">
            <stop stop-color="rgb(62 171 246)" offset="0%"></stop>
            <stop stop-color="rgb(135 228 237)" offset="50%"></stop>
            <stop stop-color="rgb(141 236 88)" offset="100%"></stop>
        </linearGradient>
    </defs>
    <path style="opacity:0.9" fill="url(#sw-gradient-1)" d="M0,15L26.7,30C53.3,45,107,75,160,90C213.3,105,267,105,320,87.5C373.3,70,427,35,480,37.5C533.3,40,587,80,640,90C693.3,100,747,80,800,70C853.3,60,907,60,960,72.5C1013.3,85,1067,110,1120,102.5C1173.3,95,1227,55,1280,35C1333.3,15,1387,15,1440,32.5C1493.3,50,1547,85,1600,87.5C1653.3,90,1707,60,1760,40C1813.3,20,1867,10,1920,10C1973.3,10,2027,20,2080,25C2133.3,30,2187,30,2240,27.5C2293.3,25,2347,20,2400,37.5C2453.3,55,2507,95,2560,115C2613.3,135,2667,135,2720,135C2773.3,135,2827,135,2880,117.5C2933.3,100,2987,65,3040,55C3093.3,45,3147,60,3200,72.5C3253.3,85,3307,95,3360,87.5C3413.3,80,3467,55,3520,55C3573.3,55,3627,80,3680,85C3733.3,90,3787,75,3813,67.5L3840,60L3840,150L3813.3,150C3786.7,150,3733,150,3680,150C3626.7,150,3573,150,3520,150C3466.7,150,3413,150,3360,150C3306.7,150,3253,150,3200,150C3146.7,150,3093,150,3040,150C2986.7,150,2933,150,2880,150C2826.7,150,2773,150,2720,150C2666.7,150,2613,150,2560,150C2506.7,150,2453,150,2400,150C2346.7,150,2293,150,2240,150C2186.7,150,2133,150,2080,150C2026.7,150,1973,150,1920,150C1866.7,150,1813,150,1760,150C1706.7,150,1653,150,1600,150C1546.7,150,1493,150,1440,150C1386.7,150,1333,150,1280,150C1226.7,150,1173,150,1120,150C1066.7,150,1013,150,960,150C906.7,150,853,150,800,150C746.7,150,693,150,640,150C586.7,150,533,150,480,150C426.7,150,373,150,320,150C266.7,150,213,150,160,150C106.7,150,53,150,27,150L0,150Z"></path>
    <defs>
        <linearGradient id="sw-gradient-2" x1="0" x2="0" y1="1" y2="0">
            <stop stop-color="rgb(62 171 246)" offset="0%"></stop>
            <stop stop-color="rgb(135 228 237)" offset="50%"></stop>
            <stop stop-color="rgb(141 236 88)" offset="100%"></stop>
        </linearGradient>
    </defs>
    <path style="opacity:0.8" fill="url(#sw-gradient-2)" d="M0,0L26.7,12.5C53.3,25,107,50,160,57.5C213.3,65,267,55,320,50C373.3,45,427,45,480,60C533.3,75,587,105,640,117.5C693.3,130,747,125,800,125C853.3,125,907,130,960,132.5C1013.3,135,1067,135,1120,122.5C1173.3,110,1227,85,1280,70C1333.3,55,1387,50,1440,52.5C1493.3,55,1547,65,1600,70C1653.3,75,1707,75,1760,80C1813.3,85,1867,95,1920,100C1973.3,105,2027,105,2080,92.5C2133.3,80,2187,55,2240,50C2293.3,45,2347,60,2400,65C2453.3,70,2507,65,2560,72.5C2613.3,80,2667,100,2720,102.5C2773.3,105,2827,90,2880,82.5C2933.3,75,2987,75,3040,80C3093.3,85,3147,95,3200,87.5C3253.3,80,3307,55,3360,45C3413.3,35,3467,40,3520,55C3573.3,70,3627,95,3680,110C3733.3,125,3787,130,3813,132.5L3840,135L3840,150L3813.3,150C3786.7,150,3733,150,3680,150C3626.7,150,3573,150,3520,150C3466.7,150,3413,150,3360,150C3306.7,150,3253,150,3200,150C3146.7,150,3093,150,3040,150C2986.7,150,2933,150,2880,150C2826.7,150,2773,150,2720,150C2666.7,150,2613,150,2560,150C2506.7,150,2453,150,2400,150C2346.7,150,2293,150,2240,150C2186.7,150,2133,150,2080,150C2026.7,150,1973,150,1920,150C1866.7,150,1813,150,1760,150C1706.7,150,1653,150,1600,150C1546.7,150,1493,150,1440,150C1386.7,150,1333,150,1280,150C1226.7,150,1173,150,1120,150C1066.7,150,1013,150,960,150C906.7,150,853,150,800,150C746.7,150,693,150,640,150C586.7,150,533,150,480,150C426.7,150,373,150,320,150C266.7,150,213,150,160,150C106.7,150,53,150,27,150L0,150Z"></path>
</svg>