<svg id="visual" viewBox="0 0 900 900" width="900" height="900" xmlns="http://www.w3.org/2000/svg" xmlns:xlink="http://www.w3.org/1999/xlink" version="1.1"><g><g transform="translate(44 883)"><path d="M0 -16.1L13.9 -8L13.9 8L0 16.1L-13.9 8L-13.9 -8Z" fill="none" stroke="#b8c0e0" stroke-width="1"></path></g><g transform="translate(240 802)"><path d="M0 -14L12.1 -7L12.1 7L0 14L-12.1 7L-12.1 -7Z" fill="none" stroke="#b8c0e0" stroke-width="1"></path></g><g transform="translate(306 790)"><path d="M0 -15L13 -7.5L13 7.5L0 15L-13 7.5L-13 -7.5Z" fill="none" stroke="#b8c0e0" stroke-width="1"></path></g><g transform="translate(834 305)"><path d="M0 -9L7.8 -4.5L7.8 4.5L0 9L-7.8 4.5L-7.8 -4.5Z" fill="none" stroke="#b8c0e0" stroke-width="1"></path></g><g transform="translate(131 796)"><path d="M0 -8L6.9 -4L6.9 4L0 8L-6.9 4L-6.9 -4Z" fill="none" stroke="#b8c0e0" stroke-width="1"></path></g><g transform="translate(699 537)"><path d="M0 -15L13 -7.5L13 7.5L0 15L-13 7.5L-13 -7.5Z" fill="none" stroke="#b8c0e0" stroke-width="1"></path></g><g transform="translate(810 72)"><path d="M0 -9L7.8 -4.5L7.8 4.5L0 9L-7.8 4.5L-7.8 -4.5Z" fill="none" stroke="#b8c0e0" stroke-width="1"></path></g><g transform="translate(315 725)"><path d="M0 -15L13 -7.5L13 7.5L0 15L-13 7.5L-13 -7.5Z" fill="none" stroke="#b8c0e0" stroke-width="1"></path></g><g transform="translate(36 205)"><path d="M0 -13L11.3 -6.5L11.3 6.5L0 13L-11.3 6.5L-11.3 -6.5Z" fill="none" stroke="#b8c0e0" stroke-width="1"></path></g><g transform="translate(663 537)"><path d="M0 -12L10.4 -6L10.4 6L0 12L-10.4 6L-10.4 -6Z" stroke="#b8c0e0" fill="none" stroke-width="1"></path></g><g transform="translate(700 24)"><path d="M0 -10L8.7 -5L8.7 5L0 10L-8.7 5L-8.7 -5Z" stroke="#b8c0e0" fill="none" stroke-width="1"></path></g><g transform="translate(574 219)"><path d="M0 -8L6.9 -4L6.9 4L0 8L-6.9 4L-6.9 -4Z" stroke="#b8c0e0" fill="none" stroke-width="1"></path></g><g transform="translate(238 591)"><path d="M0 -9L7.8 -4.5L7.8 4.5L0 9L-7.8 4.5L-7.8 -4.5Z" stroke="#b8c0e0" fill="none" stroke-width="1"></path></g></g></svg>