<?xml version="1.0" encoding="utf-8"?>
<svg viewBox="200 200 70 70" xmlns="http://www.w3.org/2000/svg" xmlns:xlink="http://www.w3.org/1999/xlink">
  <defs>
    <linearGradient id="gradient-1-1" gradientUnits="userSpaceOnUse" x1="300" y1="233" x2="300" y2="267" gradientTransform="matrix(-0.000712, -1, 1.527416, -0.00109, -146.619196, 534.39611)" xlink:href="#gradient-1"/>
    <linearGradient id="gradient-1">
      <stop style="stop-color: rgb(198, 160, 246);" offset="0"/>
      <stop offset="0.502" style="stop-color: rgb(237, 135, 150);"/>
      <stop style="stop-color: rgb(238, 212, 159);" offset="1"/>
    </linearGradient>
  </defs>
  <rect x="200" y="200" width="70" height="70" style="fill: rgb(36, 39, 58); stroke: rgba(0, 0, 0, 0);"/>
  <path d="M 260.636 227.966 L 254.494 227.966 C 254.454 227.448 254.331 226.944 254.137 226.471 C 253.877 225.857 253.475 225.325 252.971 224.93 C 252.22 224.325 251.242 223.973 250.04 223.875 C 249.799 223.856 249.557 223.847 249.316 223.848 C 248.271 223.848 247.388 224.008 246.668 224.323 C 246.374 224.45 246.096 224.612 245.833 224.801 C 245.518 225.027 245.242 225.312 245.017 225.639 C 244.641 226.189 244.437 226.86 244.447 227.546 C 244.446 227.589 244.445 227.631 244.445 227.674 C 244.445 227.958 244.477 228.229 244.541 228.477 C 244.601 228.695 244.686 228.905 244.797 229.094 C 244.995 229.441 245.248 229.748 245.541 230.002 C 245.637 230.083 245.736 230.162 245.84 230.235 C 246.113 230.432 246.403 230.606 246.702 230.755 C 246.923 230.866 247.148 230.967 247.378 231.059 C 247.829 231.236 248.285 231.392 248.752 231.521 C 248.915 231.567 249.079 231.609 249.241 231.648 L 251.965 232.358 C 252.8 232.56 253.623 232.82 254.426 233.134 C 254.825 233.291 255.219 233.464 255.605 233.652 C 256.286 233.975 256.935 234.377 257.545 234.838 C 257.871 235.085 258.181 235.351 258.475 235.639 C 259.285 236.424 259.915 237.349 260.362 238.415 C 260.651 239.11 260.848 239.843 260.947 240.598 C 261.013 241.09 261.048 241.584 261.051 242.081 C 261.053 243.033 260.933 243.981 260.696 244.894 C 260.465 245.765 260.108 246.593 259.637 247.34 C 258.959 248.405 258.081 249.299 257.064 249.967 C 256.599 250.277 256.114 250.548 255.613 250.779 C 253.861 251.593 251.753 252 249.285 252 C 246.84 252 244.711 251.591 242.9 250.772 C 241.94 250.347 241.052 249.766 240.257 249.045 C 239.652 248.487 239.117 247.844 238.669 247.128 C 237.659 245.519 237.127 243.526 237.078 241.146 L 243.279 241.146 C 243.304 241.599 243.377 242.047 243.495 242.484 C 243.636 242.999 243.861 243.485 244.16 243.915 C 244.677 244.653 245.372 245.208 246.245 245.578 C 247.12 245.95 248.108 246.135 249.213 246.135 C 249.661 246.139 250.11 246.104 250.556 246.037 C 251.029 245.963 251.469 245.848 251.872 245.688 C 251.931 245.668 251.989 245.644 252.046 245.619 C 252.38 245.48 252.699 245.302 252.999 245.091 C 253.347 244.843 253.658 244.537 253.918 244.181 C 254.362 243.567 254.583 242.863 254.583 242.066 C 254.585 241.748 254.544 241.432 254.461 241.126 C 254.364 240.785 254.201 240.467 253.986 240.193 C 253.645 239.764 253.177 239.39 252.578 239.07 C 252.466 239.01 252.353 238.953 252.236 238.901 C 251.906 238.743 251.565 238.608 251.222 238.482 C 250.686 238.289 250.091 238.103 249.433 237.931 L 246.136 237.025 C 245.231 236.792 244.346 236.482 243.487 236.101 C 242.143 235.498 241.004 234.746 240.082 233.845 C 238.851 232.648 238.082 230.982 237.935 229.188 C 237.896 228.825 237.878 228.45 237.878 228.061 C 237.878 228.047 237.878 228.031 237.878 228.014 C 237.878 227.994 237.878 227.975 237.878 227.956 C 237.878 226.858 238.029 225.836 238.33 224.893 C 238.573 224.133 238.917 223.416 239.349 222.764 C 240.139 221.584 241.153 220.601 242.319 219.882 C 242.682 219.653 243.056 219.45 243.442 219.26 C 244.619 218.699 245.865 218.326 247.14 218.152 C 247.877 218.047 248.618 217.998 249.361 218 C 250.342 217.994 251.321 218.088 252.288 218.268 C 253.313 218.462 254.31 218.792 255.257 219.26 C 256.129 219.687 256.939 220.245 257.668 220.918 C 258.247 221.457 258.756 222.079 259.188 222.764 C 260.013 224.092 260.503 225.637 260.605 227.239 C 260.621 227.481 260.632 227.723 260.636 227.966 Z M 218.331 224.219 L 209.051 224.219 L 209.051 218.452 L 233.941 218.452 L 233.941 224.219 L 224.663 224.219 L 224.663 251.531 L 218.331 251.531 L 218.331 224.219 Z" style="fill: url(#gradient-1-1);"/>
</svg>